HIERARCHY
ROOT Hips
{
	OFFSET 0.000000 83.214638 0.000000
	CHANNELS 6 Xposition Yposition Zposition Xrotation Yrotation Zrotation
	JOINT Pelvis
	{
		OFFSET 0.000000 0.000000 0.000000
		CHANNELS 3 Xrotation Yrotation Zrotation
		JOINT LeftUpLeg
		{
			OFFSET 8.479700 -4.795502 -0.379100
			CHANNELS 3 Xrotation Yrotation Zrotation
			JOINT LeftLeg
			{
				OFFSET 0.024144 -32.555107 0.112900
				CHANNELS 3 Xrotation Yrotation Zrotation
				JOINT LeftFoot
				{
					OFFSET -0.024144 -32.638630 -3.012600
					CHANNELS 3 Xrotation Yrotation Zrotation
					JOINT LeftToeBase
					{
						OFFSET 0.970200 -13.225400 11.864200
						CHANNELS 3 Xrotation Yrotation Zrotation
						End Site
						{
							OFFSET 0.000000 12.319262 0.000000
						}
					}
					JOINT LFootTongue
					{
						OFFSET 1.142400 -1.059800 6.665200
						CHANNELS 3 Xrotation Yrotation Zrotation
						End Site
						{
							OFFSET 0.000000 12.319262 0.000000
						}
					}
				}
				JOINT LeftPantLeg
				{
					OFFSET 0.918482 -16.533964 -2.284700
					CHANNELS 3 Xrotation Yrotation Zrotation
					End Site
					{
						OFFSET 0.350399 24.744368 0.000000
					}
				}
			}
		}
		JOINT RightUpLeg
		{
			OFFSET -8.479700 -4.795502 -0.379100
			CHANNELS 3 Xrotation Yrotation Zrotation
			JOINT RightLeg
			{
				OFFSET -0.023144 -32.555092 0.112900
				CHANNELS 3 Xrotation Yrotation Zrotation
				JOINT RightFoot
				{
					OFFSET 0.023144 -32.638641 -3.012700
					CHANNELS 3 Xrotation Yrotation Zrotation
					JOINT RightToeBase
					{
						OFFSET -0.970200 -13.225400 11.864200
						CHANNELS 3 Xrotation Yrotation Zrotation
						End Site
						{
							OFFSET 0.000000 12.319244 0.000000
						}
					}
					JOINT RFootTongue
					{
						OFFSET -1.142200 -1.059800 6.665200
						CHANNELS 3 Xrotation Yrotation Zrotation
						End Site
						{
							OFFSET 0.000000 12.319243 0.000000
						}
					}
				}
				JOINT RightPantLeg
				{
					OFFSET -0.919482 -16.533978 -2.284800
					CHANNELS 3 Xrotation Yrotation Zrotation
					End Site
					{
						OFFSET -0.350400 24.744419 0.000000
					}
				}
			}
		}
	}
	JOINT Spine
	{
		OFFSET 0.000000 7.722000 1.166200
		CHANNELS 3 Xrotation Yrotation Zrotation
		JOINT Spine1
		{
			OFFSET 0.000000 12.024101 0.248800
			CHANNELS 3 Xrotation Yrotation Zrotation
			JOINT Spine2
			{
				OFFSET 0.000000 11.502998 -0.491200
				CHANNELS 3 Xrotation Yrotation Zrotation
				JOINT Neck
				{
					OFFSET 0.000000 18.430702 -3.123100
					CHANNELS 3 Xrotation Yrotation Zrotation
					JOINT Head
					{
						OFFSET 0.000000 9.051102 1.034000
						CHANNELS 3 Xrotation Yrotation Zrotation
						JOINT HairB
						{
							OFFSET 0.208400 24.786102 24.822300
							CHANNELS 3 Xrotation Yrotation Zrotation
							End Site
							{
								OFFSET 0.000000 32.263779 0.000000
							}
						}
						JOINT HairA
						{
							OFFSET -7.081100 24.428299 23.196600
							CHANNELS 3 Xrotation Yrotation Zrotation
							End Site
							{
								OFFSET 0.000000 32.263779 0.000000
							}
						}
						JOINT Hat
						{
							OFFSET 16.728800 15.048294 -15.439601
							CHANNELS 3 Xrotation Yrotation Zrotation
							End Site
							{
								OFFSET 0.000000 32.263779 0.000000
							}
						}
					}
				}
				JOINT LeftShoulder
				{
					OFFSET 6.197800 13.665199 -4.064700
					CHANNELS 3 Xrotation Yrotation Zrotation
					JOINT LeftArm
					{
						OFFSET 7.778100 -0.187103 -1.709300
						CHANNELS 3 Xrotation Yrotation Zrotation
						JOINT LeftForeArm
						{
							OFFSET 22.049376 0.000000 0.000000
							CHANNELS 3 Xrotation Yrotation Zrotation
							JOINT LeftHand
							{
								OFFSET 23.009392 0.000000 0.000000
								CHANNELS 3 Xrotation Yrotation Zrotation
								JOINT LeftHandThumb1
								{
									OFFSET 3.507191 -2.063065 3.133727
									CHANNELS 3 Xrotation Yrotation Zrotation
									JOINT LeftHandThumb2
									{
										OFFSET 3.101337 -1.790558 1.790558
										CHANNELS 3 Xrotation Yrotation Zrotation
										JOINT LeftHandThumb3
										{
											OFFSET 3.058640 -1.765907 1.765906
											CHANNELS 3 Xrotation Yrotation Zrotation
											End Site
											{
												OFFSET -0.415260 3.926476 -0.049563
											}
										}
									}
								}
								JOINT LeftHandIndex1
								{
									OFFSET 11.334419 -0.901459 3.706815
									CHANNELS 3 Xrotation Yrotation Zrotation
									JOINT LeftHandIndex2
									{
										OFFSET 3.283112 0.000000 0.000000
										CHANNELS 3 Xrotation Yrotation Zrotation
										JOINT LeftHandIndex3
										{
											OFFSET 3.323853 0.000000 0.000000
											CHANNELS 3 Xrotation Yrotation Zrotation
											End Site
											{
												OFFSET -1.135597 3.097809 0.402452
											}
										}
									}
								}
								JOINT LeftHandMiddle1
								{
									OFFSET 11.335861 0.000000 0.000000
									CHANNELS 3 Xrotation Yrotation Zrotation
									JOINT LeftHandMiddle2
									{
										OFFSET 3.410492 0.000000 0.000000
										CHANNELS 3 Xrotation Yrotation Zrotation
										JOINT LeftHandMiddle3
										{
											OFFSET 3.312172 0.000000 0.000000
											CHANNELS 3 Xrotation Yrotation Zrotation
											End Site
											{
												OFFSET -1.150200 3.080154 0.400270
											}
										}
									}
								}
								JOINT LeftHandRing1
								{
									OFFSET 11.514786 -0.013176 -3.003090
									CHANNELS 3 Xrotation Yrotation Zrotation
									JOINT LeftHandRing2
									{
										OFFSET 3.053307 0.000000 0.000000
										CHANNELS 3 Xrotation Yrotation Zrotation
										JOINT LeftHandRing3
										{
											OFFSET 3.295807 0.000000 0.000000
											CHANNELS 3 Xrotation Yrotation Zrotation
											End Site
											{
												OFFSET -1.281006 3.013344 0.375733
											}
										}
									}
								}
								JOINT LeftHandPinky1
								{
									OFFSET 10.518692 -0.960396 -5.730441
									CHANNELS 3 Xrotation Yrotation Zrotation
									JOINT LeftHandPinky2
									{
										OFFSET 2.861649 0.000000 0.000000
										CHANNELS 3 Xrotation Yrotation Zrotation
										JOINT LeftHandPinky3
										{
											OFFSET 2.863380 0.000000 0.000000
											CHANNELS 3 Xrotation Yrotation Zrotation
											End Site
											{
												OFFSET -0.843597 2.711159 0.369971
											}
										}
									}
								}
							}
							JOINT LSleeve
							{
								OFFSET 6.676277 -0.344902 -1.011730
								CHANNELS 3 Xrotation Yrotation Zrotation
								End Site
								{
									OFFSET 0.000000 14.885353 0.000000
								}
							}
						}
					}
				}
				JOINT RightShoulder
				{
					OFFSET -6.197800 13.665199 -4.064700
					CHANNELS 3 Xrotation Yrotation Zrotation
					JOINT RightArm
					{
						OFFSET -7.778100 -0.187103 -1.709300
						CHANNELS 3 Xrotation Yrotation Zrotation
						JOINT RightForeArm
						{
							OFFSET -22.049376 0.000000 0.000000
							CHANNELS 3 Xrotation Yrotation Zrotation
							JOINT RightHand
							{
								OFFSET -23.009392 0.000000 0.000000
								CHANNELS 3 Xrotation Yrotation Zrotation
								JOINT RightHandThumb1
								{
									OFFSET -3.507191 -2.063065 3.133727
									CHANNELS 3 Xrotation Yrotation Zrotation
									JOINT RightHandThumb2
									{
										OFFSET -3.101337 -1.790558 1.790558
										CHANNELS 3 Xrotation Yrotation Zrotation
										JOINT RightHandThumb3
										{
											OFFSET -3.058640 -1.765907 1.765906
											CHANNELS 3 Xrotation Yrotation Zrotation
											End Site
											{
												OFFSET 0.415260 3.926476 -0.049563
											}
										}
									}
								}
								JOINT RightHandIndex1
								{
									OFFSET -11.334419 -0.901459 3.706815
									CHANNELS 3 Xrotation Yrotation Zrotation
									JOINT RightHandIndex2
									{
										OFFSET -3.283112 0.000000 0.000000
										CHANNELS 3 Xrotation Yrotation Zrotation
										JOINT RightHandIndex3
										{
											OFFSET -3.323853 0.000000 0.000000
											CHANNELS 3 Xrotation Yrotation Zrotation
											End Site
											{
												OFFSET 1.135597 3.097809 0.402452
											}
										}
									}
								}
								JOINT RightHandMiddle1
								{
									OFFSET -11.335861 0.000000 0.000000
									CHANNELS 3 Xrotation Yrotation Zrotation
									JOINT RightHandMiddle2
									{
										OFFSET -3.410492 0.000000 0.000000
										CHANNELS 3 Xrotation Yrotation Zrotation
										JOINT RightHandMiddle3
										{
											OFFSET -3.312172 0.000000 0.000000
											CHANNELS 3 Xrotation Yrotation Zrotation
											End Site
											{
												OFFSET 1.150200 3.080154 0.400270
											}
										}
									}
								}
								JOINT RightHandRing1
								{
									OFFSET -11.514786 -0.013176 -3.003090
									CHANNELS 3 Xrotation Yrotation Zrotation
									JOINT RightHandRing2
									{
										OFFSET -3.053307 0.000000 0.000000
										CHANNELS 3 Xrotation Yrotation Zrotation
										JOINT RightHandRing3
										{
											OFFSET -3.295807 0.000000 0.000000
											CHANNELS 3 Xrotation Yrotation Zrotation
											End Site
											{
												OFFSET 1.281006 3.013344 0.375733
											}
										}
									}
								}
								JOINT RightHandPinky1
								{
									OFFSET -10.518692 -0.960396 -5.730441
									CHANNELS 3 Xrotation Yrotation Zrotation
									JOINT RightHandPinky2
									{
										OFFSET -2.861649 0.000000 0.000000
										CHANNELS 3 Xrotation Yrotation Zrotation
										JOINT RightHandPinky3
										{
											OFFSET -2.863380 0.000000 0.000000
											CHANNELS 3 Xrotation Yrotation Zrotation
											End Site
											{
												OFFSET 0.843597 2.711159 0.369971
											}
										}
									}
								}
							}
							JOINT RSleeve
							{
								OFFSET -6.676277 -0.344902 -1.011730
								CHANNELS 3 Xrotation Yrotation Zrotation
								End Site
								{
									OFFSET 0.000000 14.885353 0.000000
								}
							}
						}
					}
				}
				JOINT Backpack
				{
					OFFSET 0.000000 -2.471497 36.677502
					CHANNELS 3 Xrotation Yrotation Zrotation
					End Site
					{
						OFFSET 0.000000 20.427315 0.000000
					}
				}
				JOINT Hood
				{
					OFFSET 0.000000 18.754097 -10.431000
					CHANNELS 3 Xrotation Yrotation Zrotation
					JOINT Hood1
					{
						OFFSET 0.000000 -5.011002 -7.685901
						CHANNELS 3 Xrotation Yrotation Zrotation
						End Site
						{
							OFFSET 0.000000 9.175140 0.000000
						}
					}
				}
				JOINT LHoodieString
				{
					OFFSET 5.250500 16.397697 3.089900
					CHANNELS 3 Xrotation Yrotation Zrotation
					JOINT LHoodieString1
					{
						OFFSET 0.257700 -6.364304 3.694600
						CHANNELS 3 Xrotation Yrotation Zrotation
						JOINT LHoodieString2
						{
							OFFSET 0.000000 -9.643799 2.679100
							CHANNELS 3 Xrotation Yrotation Zrotation
							End Site
							{
								OFFSET 0.000000 10.009018 0.000000
							}
						}
					}
				}
				JOINT RHoodieString
				{
					OFFSET -5.250500 16.397697 3.089900
					CHANNELS 3 Xrotation Yrotation Zrotation
					JOINT RHoodieString1
					{
						OFFSET -0.257700 -6.364304 3.694600
						CHANNELS 3 Xrotation Yrotation Zrotation
						JOINT RHoodieString2
						{
							OFFSET 0.000000 -9.643799 2.679100
							CHANNELS 3 Xrotation Yrotation Zrotation
							End Site
							{
								OFFSET 0.000000 10.009018 0.000000
							}
						}
					}
				}
			}
			JOINT LBackpack_Strap
			{
				OFFSET 15.223200 -7.719803 -6.610900
				CHANNELS 3 Xrotation Yrotation Zrotation
				End Site
				{
					OFFSET 0.000000 16.040596 0.000000
				}
			}
			JOINT RBackpack_Strap
			{
				OFFSET -15.223000 -7.719803 -6.610900
				CHANNELS 3 Xrotation Yrotation Zrotation
				End Site
				{
					OFFSET 0.000000 16.040596 0.000000
				}
			}
		}
	}
	JOINT BoyFacialAnim_Joint
	{
		OFFSET 1.000000 -82.208099 -1.550900
		CHANNELS 3 Xrotation Yrotation Zrotation
		End Site
		{
			OFFSET 0.000000 30.012791 0.000000
		}
	}
}
MOTION
Frames: 4
Frame Time: 0.033333
-0.038004 39.309326 -0.029486 -17.158950 -39.903488 -6.703425 0.000001 -0.000001 0.000000 -77.598155 -16.287655 36.949927 123.156739 5.077458 -4.171291 -18.428578 -1.816623 -13.633269 -0.000000 0.000000 -0.000000 -0.000000 0.000000 -0.000000 -0.000001 -0.000001 0.000001 -3.875546 37.199505 -19.369428 123.959969 -10.253384 -1.280045 -38.967008 0.323426 5.839508 -0.000002 0.000001 -0.000000 -0.000002 0.000001 -0.000000 -0.000001 0.000001 0.000001 14.730770 2.047750 -4.203269 15.337996 5.571947 -2.765595 18.929415 5.562626 -3.514074 -1.132920 1.920154 3.538739 -15.334753 18.165433 4.895143 0.000003 -0.000001 0.000001 0.000003 -0.000001 0.000001 0.000003 -0.000001 0.000001 -2.985222 -6.651931 0.026172 -62.117333 -22.591143 -78.004298 -93.719252 14.301365 -75.784822 -24.666270 0.242122 13.179901 0.699120 9.503395 -2.418101 5.975205 12.647524 1.348328 0.000001 -0.000001 -0.000001 9.479713 -1.289761 -20.785546 0.709477 2.796451 -28.467090 0.000000 -0.000002 -0.000000 10.058162 -1.800561 -20.644720 1.774255 4.200491 -45.782109 0.000004 -0.000001 -0.000002 1.254227 -0.073727 -17.945779 3.754078 5.463610 -68.965274 -0.000004 0.000001 -0.000000 -7.938260 1.609093 -6.495663 2.210577 4.583686 -51.475147 -0.000002 0.000001 0.000003 -0.000000 0.000002 0.000000 -6.876184 -5.830234 -1.756293 1.617400 47.699210 42.440323 38.352943 127.947161 -46.021159 -4.654253 14.778030 -16.068990 13.942489 -4.273670 -5.300350 7.113179 -20.767566 -2.619516 0.000001 0.000000 0.000001 0.357755 -5.832714 5.175834 0.094327 -0.933642 11.539831 0.000000 -0.000001 0.000003 3.764065 -12.080507 1.143740 5.714246 -4.535856 103.133507 0.000002 0.000001 -0.000000 -12.155595 -12.623921 9.228363 6.566891 -4.248416 114.232291 -0.000001 -0.000001 0.000004 -17.635748 -10.496839 3.325393 4.993683 -4.645054 94.147963 -0.000000 -0.000001 -0.000003 -0.000000 -0.000001 -0.000002 0.000002 0.000002 -0.000001 0.000002 0.000002 -0.000001 0.000002 0.000002 -0.000001 0.000002 0.000002 -0.000001 0.000002 0.000002 -0.000001 -0.000000 -0.000002 0.000001 0.000002 0.000002 -0.000001 0.000002 0.000002 -0.000001 -0.000000 -0.000002 0.000001 0.000002 -0.000002 -0.000000 0.000002 -0.000002 -0.000000 0.000001 -0.000001 0.000000 
-0.420954 41.015091 -1.229856 -14.153106 -44.446206 -5.748819 -0.000000 -0.000001 -0.000000 -77.028032 -14.900421 41.195285 119.507806 4.944689 -4.177401 -17.468158 -1.609186 -13.038024 0.000000 -0.000000 -0.000000 0.000000 -0.000000 -0.000000 -0.000001 0.000001 0.000001 -11.536569 39.254518 -15.181412 123.568108 -12.761970 -1.549099 -42.029275 0.133491 3.872187 -0.000001 0.000000 -0.000001 -0.000001 0.000000 -0.000001 -0.000000 -0.000001 0.000001 11.783296 2.985763 -9.935031 15.567786 5.097401 1.630071 18.097611 6.290596 1.079286 -2.113618 3.200668 2.776056 -14.579886 24.246956 4.115656 0.000002 -0.000000 0.000001 0.000002 -0.000000 0.000001 0.000002 -0.000000 0.000001 -3.169813 -6.799102 0.022025 -58.231584 -14.270236 -76.140531 -91.387432 14.094929 -79.019831 -21.261443 0.137062 13.322531 0.699114 9.503399 -2.418101 5.975204 12.647524 1.348330 0.000000 -0.000001 -0.000000 9.479710 -1.289774 -20.785557 0.709479 2.796434 -28.467091 -0.000001 0.000000 -0.000007 10.058166 -1.800571 -20.644727 1.774246 4.200489 -45.782102 0.000003 0.000001 0.000000 1.254228 -0.073712 -17.945789 3.754088 5.463608 -68.965260 -0.000001 -0.000000 -0.000002 -7.938263 1.609090 -6.495666 2.210591 4.583708 -51.475150 -0.000002 0.000000 0.000001 0.000000 -0.000001 0.000001 -7.791785 -0.704381 -1.189296 1.539303 47.499751 40.159084 43.421128 123.929507 -51.700021 -8.811227 17.538211 -12.233365 13.942488 -4.273668 -5.300351 7.113178 -20.767566 -2.619515 -0.000000 0.000001 -0.000001 0.357756 -5.832712 5.175834 0.094327 -0.933641 11.539829 -0.000001 -0.000000 0.000002 3.764064 -12.080503 1.143740 5.714247 -4.535854 103.133507 0.000001 -0.000000 0.000003 -12.155592 -12.623918 9.228363 6.566891 -4.248417 114.232291 -0.000002 0.000003 0.000003 -17.635748 -10.496836 3.325392 4.993682 -4.645059 94.147963 -0.000000 0.000003 0.000001 -0.000000 -0.000001 -0.000001 -0.000002 -0.000002 0.000001 -0.000002 -0.000002 0.000001 -0.000002 -0.000002 0.000001 -0.000002 -0.000002 0.000001 -0.000002 -0.000002 0.000001 -0.000001 0.000002 -0.000000 -0.000002 -0.000002 0.000001 -0.000002 -0.000002 0.000001 -0.000001 0.000002 -0.000000 0.000002 0.000000 -0.000000 0.000002 0.000000 -0.000000 -0.000000 -0.000001 -0.000000 
-0.812376 44.211655 -2.477216 -10.733232 -48.932845 -4.285501 -0.000000 0.000001 0.000001 -75.699922 -10.614588 45.390924 113.466893 4.788617 -3.467060 -16.869194 -0.885340 -11.917790 0.000000 -0.000000 -0.000000 0.000000 -0.000000 -0.000000 -0.000001 0.000000 0.000002 -17.324850 38.668061 -11.007664 119.319594 -15.199742 -2.069535 -45.722943 0.119099 0.066104 0.000002 -0.000001 -0.000000 0.000002 -0.000001 -0.000000 -0.000000 -0.000001 0.000001 7.600868 3.498805 -12.773221 15.618880 4.519902 4.566866 17.328516 6.038473 4.266125 -0.955212 5.371309 2.434420 -10.537794 29.862943 3.644283 0.000001 0.000000 0.000001 0.000001 0.000000 0.000001 0.000001 0.000000 0.000001 -1.770669 -7.478425 -0.031161 -55.077894 -5.166032 -74.251874 -88.182913 10.128955 -83.122624 -20.965124 -0.094980 14.886069 0.699121 9.503395 -2.418105 5.975204 12.647523 1.348331 0.000000 0.000003 -0.000000 9.479707 -1.289772 -20.785550 0.709479 2.796437 -28.467079 0.000001 -0.000003 -0.000004 10.058165 -1.800573 -20.644720 1.774246 4.200513 -45.782095 0.000001 -0.000001 -0.000003 1.254226 -0.073735 -17.945782 3.754082 5.463635 -68.965281 0.000000 0.000000 -0.000002 -7.938258 1.609095 -6.495664 2.210592 4.583684 -51.475185 -0.000000 0.000001 0.000005 0.000000 0.000001 0.000000 -8.304759 4.293020 -0.486114 4.012531 48.229619 36.701922 49.583629 120.241696 -58.905703 -14.155888 21.165083 -8.493829 13.942488 -4.273666 -5.300350 7.113178 -20.767564 -2.619515 -0.000000 0.000001 0.000002 0.357753 -5.832711 5.175836 0.094327 -0.933642 11.539830 -0.000000 -0.000001 0.000002 3.764066 -12.080504 1.143740 5.714247 -4.535854 103.133507 0.000002 0.000001 -0.000002 -12.155591 -12.623918 9.228360 6.566889 -4.248418 114.232298 -0.000001 0.000001 -0.000005 -17.635752 -10.496837 3.325392 4.993680 -4.645054 94.147963 -0.000000 0.000002 -0.000001 -0.000000 0.000000 -0.000001 -0.000002 0.000001 0.000001 -0.000002 0.000001 0.000001 -0.000002 0.000001 0.000001 -0.000002 0.000001 0.000001 -0.000002 0.000001 -0.000001 -0.000001 0.000000 0.000001 -0.000002 0.000001 0.000001 -0.000002 0.000001 -0.000001 -0.000001 0.000000 0.000001 -0.000001 0.000000 -0.000001 -0.000001 0.000000 -0.000001 -0.000000 0.000001 0.000001 
-1.248114 49.901703 -4.135457 -6.429551 -53.206484 -1.585515 -0.000000 0.000001 -0.000000 -73.452039 -2.075764 48.650034 102.259454 3.259998 -2.100937 -15.226088 1.711533 -9.798432 0.000000 0.000000 0.000000 0.000000 0.000000 0.000000 -0.000004 -0.000000 0.000000 -23.850281 36.830330 -5.919798 111.149369 -15.225081 -2.641224 -45.571186 1.660004 -5.805750 0.000001 0.000003 0.000002 0.000001 0.000003 0.000002 0.000001 -0.000003 -0.000004 2.688931 3.389743 -12.595810 14.887782 3.726570 5.936344 15.963827 4.952264 5.854763 0.797947 8.021162 2.597146 -8.099455 33.771696 3.898087 0.000000 0.000000 0.000001 0.000000 0.000000 0.000001 0.000000 0.000000 0.000001 1.215267 -8.566406 -0.049224 -52.134974 4.416786 -72.931981 -85.008965 2.224673 -87.309106 -24.229367 -0.203697 17.269472 0.699121 9.503396 -2.418108 5.975204 12.647522 1.348329 0.000001 -0.000003 0.000000 9.479709 -1.289770 -20.785555 0.709479 2.796452 -28.467110 -0.000003 -0.000000 -0.000005 10.058160 -1.800575 -20.644720 1.774236 4.200513 -45.782075 -0.000001 -0.000001 -0.000005 1.254227 -0.073733 -17.945788 3.754098 5.463631 -68.965308 0.000002 -0.000001 -0.000002 -7.938253 1.609102 -6.495666 2.210587 4.583681 -51.475178 -0.000001 0.000003 0.000000 0.000002 0.000003 0.000000 -7.904842 8.983366 0.200857 10.186535 49.389914 31.349312 55.786697 117.464009 -66.689714 -20.402361 25.294374 -5.257618 13.942486 -4.273665 -5.300350 7.113178 -20.767564 -2.619517 -0.000000 -0.000000 0.000001 0.357755 -5.832709 5.175836 0.094328 -0.933645 11.539831 -0.000001 -0.000001 0.000002 3.764065 -12.080502 1.143741 5.714246 -4.535855 103.133507 0.000003 0.000001 -0.000000 -12.155591 -12.623917 9.228363 6.566891 -4.248416 114.232298 -0.000001 0.000002 0.000001 -17.635752 -10.496836 3.325392 4.993682 -4.645059 94.147963 -0.000001 -0.000001 -0.000002 0.000001 -0.000000 -0.000000 0.000001 0.000002 -0.000000 0.000001 0.000002 -0.000000 0.000001 0.000002 -0.000000 0.000001 0.000002 -0.000000 0.000001 0.000002 0.000000 0.000001 -0.000003 0.000001 0.000001 0.000002 -0.000000 0.000001 0.000002 0.000000 0.000001 -0.000003 0.000001 0.000001 0.000000 -0.000001 0.000001 0.000000 -0.000001 -0.000000 0.000001 -0.000000 
